<svg xmlns="http://www.w3.org/2000/svg" xmlns:svgjs="http://svgjs.com/svgjs" xmlns:xlink="http://www.w3.org/1999/xlink" width="288" height="288"><svg xmlns="http://www.w3.org/2000/svg" width="288" height="288" enable-background="new 0 0 471.695 471.695" viewBox="0 0 471.695 471.695"><path fill="#ffbc5e" d="M235.852,0C105.598,0,0,78.286,0,123.17c0,44.861,105.598,348.525,235.852,348.525
	c130.244,0,235.844-303.664,235.844-348.525C471.695,78.286,366.096,0,235.852,0z M348.748,288.573c0,5.186-4.208,9.395-9.395,9.395
	c-5.194,0-9.402-4.208-9.402-9.395c0-19.607-6.042-37.833-16.339-52.922c-3.883,16.283-9.548,34.757-17.309,51.682
	c14.712,15.174,23.814,35.82,23.814,58.57c0,5.189-4.208,9.402-9.396,9.402c-5.186,0-9.402-4.214-9.402-9.402
	c0-15.443-5.401-29.64-14.396-40.852c-12.707,20.77-29.471,36.005-51.08,36.005c-21.609,0-38.387-15.235-51.096-36.005
	c-8.979,11.212-14.38,25.408-14.38,40.852c0,5.189-4.216,9.402-9.402,9.402c-5.188,0-9.396-4.214-9.396-9.402
	c0-22.75,9.103-43.389,23.814-58.57c-7.761-16.917-13.426-35.398-17.308-51.674c-10.297,15.081-16.339,33.308-16.339,52.914
	c0,5.186-4.208,9.395-9.402,9.395c-5.187,0-9.395-4.208-9.395-9.395c0-29.664,11.591-56.614,30.364-76.782
	c-0.423-2.713-0.786-5.21-1.064-7.491c-18.142-20.038-29.3-46.511-29.3-75.612c0-5.187,4.208-9.395,9.395-9.395
	c5.194,0,9.402,4.208,9.402,9.395c0,17.588,4.932,34.011,13.364,48.099c5.494-12.861,17.479-26.581,38.071-34.812
	c-0.185-1.602-0.486-3.183-0.486-4.84c0-6.565,1.572-12.725,4.194-18.296c-8.418-9.325-13.596-21.633-13.596-35.15
	c0-5.186,4.2-9.401,9.402-9.401c5.186,0,9.388,4.216,9.388,9.401c0,7.521,2.564,14.419,6.743,20.029
	c7.421-6.004,16.738-9.757,27.028-9.757c10.289,0,19.606,3.753,27.027,9.757c4.178-5.61,6.743-12.508,6.743-20.029
	c0-5.186,4.201-9.401,9.388-9.401c5.202,0,9.402,4.216,9.402,9.401c0,13.518-5.179,25.825-13.594,35.15
	c2.62,5.571,4.192,11.73,4.192,18.296c0,1.657-0.301,3.237-0.486,4.84c20.585,8.23,32.578,21.95,38.064,34.819
	c8.432-14.096,13.372-30.519,13.372-48.107c0-5.187,4.208-9.395,9.402-9.395c5.187,0,9.395,4.208,9.395,9.395
	c0,29.102-11.159,55.582-29.309,75.612c-0.278,2.281-0.633,4.778-1.064,7.483C337.15,231.959,348.748,258.909,348.748,288.573z" class="color000 svgShape"/></svg></svg>